<?xml version="1.0" encoding="utf-8" ?><svg xmlns="http://www.w3.org/2000/svg" xmlns:xlink="http://www.w3.org/1999/xlink" width="1024" height="1024" viewBox="0 0 1024 1024"><path fill="white" d="M0 0L1024 0L1024 1024L0 1024L0 0Z"/><path fill="#700403" d="M467.88 398.014C469.434 397.64 469.521 398.075 470.426 399.111C514.944 449.753 560.274 499.676 606.396 548.861C638.596 583.657 672.848 622.846 708.087 654.433C692.371 654.754 671.946 655.895 656.052 656.92C614.291 658.705 573.565 655.215 531.792 653.368C506.024 599.622 479.982 546.007 453.668 492.526C440.926 467.125 428.475 441.58 416.319 415.893C431.538 411.481 452.883 403.612 467.88 398.014Z"/><path fill="#700403" d="M648.158 379.462C667.175 387.099 686.884 399.519 706.018 407.752C726.259 416.46 743.894 433.7 761.969 446.314C766.03 449.148 782.447 460.705 784.524 463.627C798.794 483.705 813.493 509.25 827.569 529.264C818.166 526.182 804.226 520.206 795.275 516.249C794.705 523.147 793.05 539.506 793.524 545.664L792.851 548.053L792.215 547.992L791.252 546.55C789.47 540.383 782.332 526.14 779.288 519.758C773.784 523.662 767.809 526.901 762.061 530.505C760.076 535.83 758.478 544.791 757.305 550.545C753.624 546.001 751.235 541.686 746.933 536.66C736.457 545.167 722.172 555.314 711.071 563.24C723.086 564.788 736.033 568.018 748.561 569.699C751.568 563.969 756.695 553.55 760.196 548.615C762.445 555.899 764.54 565.457 766.259 572.93C770.243 574.167 773.652 575.358 777.559 576.825C781.887 567.658 785.833 557.715 790.222 548.296C792.465 557.726 794.762 567.142 797.114 576.545C805.135 574.761 815.418 571.274 823.817 569.011C822.037 572.082 804.122 603.469 802.53 604.4C783.547 615.505 763.999 626.261 745.011 637.528C737.784 641.817 728.957 647.771 721.592 651.202C718.846 644.12 716.169 632.703 713.925 624.985C708.014 605.039 702.381 585.013 697.028 564.91L648.158 379.462Z"/><path fill="white" d="M758.207 472.216C758.557 472.252 758.907 472.288 759.257 472.325C754.855 485.504 749.727 498.875 744.872 511.992C742.183 508.022 739.129 503.217 736.371 499.434C731.314 491.718 726.032 484.294 721.443 476.283C733.709 474.994 745.953 473.604 758.207 472.216Z"/><path fill="#700403" d="M631.156 377.778C632.546 378.797 637.834 403.173 638.754 406.886C656.17 475.659 673.05 544.566 689.393 613.601C682.845 607.004 675.29 597.506 668.825 590.326C653.88 574.05 639.05 557.669 624.338 541.182C617.471 533.999 609.964 524.93 603.008 517.353L521.226 426.764C511.924 416.392 502.525 405.162 493.015 395.158C505.458 394.295 521.365 391.303 534.071 389.909C566.389 386.363 598.869 381.067 631.156 377.778Z"/><path fill="#700403" d="M494.259 280.914C536.816 309.054 579.153 337.526 621.267 366.325C599.844 367.825 574.631 371.899 553.203 374.789C531.398 377.731 508.559 380.311 486.988 383.789C492.796 374.892 498.465 365.905 503.993 356.83C504.957 355.393 505.665 354.512 506.228 352.855L505.796 352.034L503.598 351.564L490.594 349.563C496.586 338.924 502.807 328.417 509.253 318.049C503.827 305.852 499.545 292.323 494.259 280.914Z"/><path fill="#700403" d="M205.927 345.877C208.505 347.946 215.909 356.495 218.381 359.27C227.069 369.035 235.693 378.856 244.254 388.733C263.486 410.664 283.93 432.345 302.887 454.192C290.228 461.01 273.368 468.602 260.257 475.008L240.895 484.381C235.527 478.161 226.956 465.447 221.476 458.292L234.334 458.507C227.403 444.178 215.74 425.388 207.707 410.877C213.309 412.87 220.355 414.615 226.145 416.17C222.649 411.384 211.295 399.453 206.896 395.449L205.927 345.877Z"/><path fill="#700403" d="M426.135 473.335C430.45 477.084 493.833 622.106 500.569 637.244L493.288 633.62C467.314 620.214 440.997 607.48 414.365 595.433C418.21 554.721 423.193 514.264 426.135 473.335Z"/><path fill="#700403" d="M406.976 425.349L407.621 425.86C408.901 429.206 416.797 449.814 416.82 452.102C416.917 461.444 413.78 478.196 412.416 488.063C408.141 518.997 402.295 549.769 397.731 580.603C393.505 574.199 386.876 561.818 382.876 554.797C371.981 534.345 358.363 514.566 346.025 494.81C367.318 471.612 386.237 448.562 406.976 425.349Z"/><path fill="#700403" d="M227.967 562.756C231.015 564.563 242.138 568.591 246.13 570.259C257.283 574.916 268.798 580.281 280.029 584.562C256.855 617.915 233.911 647.024 211.585 681.743C209.28 685.443 206.922 689.109 204.51 692.74L204.567 646.62C210.632 637.161 215.906 630.32 222.026 620.03C214.01 620.025 203.554 619.251 195.453 618.623C205.515 607.02 219.904 591.972 228.792 580.35C225.551 579.037 222.287 577.782 219.003 576.583C221.544 572.248 225.155 567.04 227.967 562.756Z"/><path fill="#700403" d="M305.645 465.963C306.961 466.501 327.219 488.279 330.597 491.401C321.483 507.677 313.91 525.533 304.037 542.535C298.375 538.478 291.835 532.921 286.329 528.47C273.337 518.059 260.272 508.476 247.276 497.92C253.067 495.002 259.551 491.121 265.374 487.956C278.843 480.708 292.267 473.377 305.645 465.963Z"/><path fill="#700403" d="M412.294 605.384C415.411 606.485 422.994 610.527 426.309 612.165C437.291 617.51 448.198 623.006 459.028 628.653C474.083 636.376 490.459 643.568 505.806 651.265C493.895 655.533 479 662.798 467.374 668.252L440.577 680.434C433.584 683.697 426.688 687.268 419.583 690.227C423.767 679.129 428.026 668.06 432.359 657.02C429.955 653.229 426.941 649.315 424.226 645.705C426.593 642.814 427.666 641.309 429.646 638.139C423.466 628.059 418.904 615.822 412.294 605.384Z"/><path fill="#700403" d="M536.643 665.395C546.086 666.56 561.591 666.893 571.42 667.3L621.287 669.696C616.485 674.28 606.933 681.577 601.554 685.923C589.662 695.597 577.678 705.156 565.603 714.6C558.041 720.552 550.516 726.55 543.027 732.595C538.173 736.494 533.194 740.794 527.997 744.172C531.962 734.868 536.07 725.483 539.651 716.036C537.402 710.989 535.027 705.998 532.528 701.069C537.568 697.5 542.671 693.295 547.769 689.577C544.498 681.258 540.538 673.434 536.643 665.395Z"/><path fill="#700403" d="M249.519 510.954C265.205 523.545 284.877 538.281 301.099 550.312C295.517 558.439 290.07 566.659 284.761 574.967L278.959 572.475C267.454 566.958 247.383 558.689 235.466 553.99C235.415 550.518 235.585 546.824 235.692 543.334C238.721 538.809 243.753 533.017 247.326 528.785C243.582 526.668 239.823 524.577 236.05 522.512C240.591 518.721 245.082 514.867 249.519 510.954Z"/><path fill="#700403" d="M330.427 514.167C333.283 506.592 334.737 511.8 336.884 513.049L337.561 513.436C340.404 515.446 344.673 523.105 346.77 526.202C356.563 540.666 365.582 555.687 376.785 569.131C378.653 571.373 381.024 574.184 381.691 577.057L381.27 577.898C376.404 578.849 335.526 553.366 328.449 549.184C326.93 548.286 323.659 545.906 323.792 543.899C323.918 536.652 328.317 521.013 330.427 514.167Z"/><path fill="#8B1A1A" d="M330.427 514.167C333.283 506.592 334.737 511.8 336.884 513.049L337.561 513.436C334.778 513.548 333.181 513.824 330.427 514.167Z"/><path fill="#700403" d="M382.679 432.901L383.507 433.279C384.052 434.726 384.185 434.917 384.376 436.492C382.973 441.038 351.903 472.341 346.385 477.69C341.698 478.242 338.124 478.949 333.541 479.898L330.112 475.761C328.194 473.439 326.178 470.568 324.372 468.112C328.204 464.973 340.894 457.883 345.712 455.03L382.679 432.901Z"/></svg>