<?xml version="1.0" encoding="utf-8" ?><svg xmlns="http://www.w3.org/2000/svg" xmlns:xlink="http://www.w3.org/1999/xlink" width="1024" height="1024" viewBox="0 0 1024 1024"><path fill="white" d="M0 0L1024 0L1024 1024L0 1024L0 0Z"/><path fill="#720604" d="M600.157 337.714C604.02 337.534 612.442 336.799 615.677 338.137C634.849 346.066 653.568 355.969 672.591 364.26C690.663 371.985 708.781 379.604 726.944 387.115C733.569 389.845 750.004 396.162 755.748 399.524C735.225 405.581 706.006 425.472 692.523 441.819C666.324 473.583 663.268 509.564 666.627 548.6C667.159 553.03 667.722 557.455 668.317 561.877C658.658 547.929 649.396 532.184 640.29 517.802L592.172 442.936C579.761 423.643 567.026 404.561 553.971 385.698C543.967 371.229 532.98 356.167 523.399 341.54L600.157 337.714Z"/><path fill="#720604" d="M470.776 391.896C473.129 392.506 662.237 571.05 678.892 587.178C697.529 605.225 716.246 623.597 733.914 642.582C728.019 640.127 718.752 634.512 712.98 631.252L679.125 612.324C582.151 557.382 484.03 504.488 384.828 453.678C409.671 437.284 433.673 417.262 458.47 400.549C462.623 397.749 466.551 394.678 470.776 391.896Z"/><path fill="#720604" d="M197.884 382.852C200.47 384.002 212.554 393.24 215.65 395.547L251.516 422.164C275.969 440.266 307.524 462.195 333.139 478.725C326.992 485.424 321.082 491.726 315.43 498.863C331.37 500.332 347.421 502.592 363.311 504.655C379.827 506.799 396.961 508.376 413.344 511.22C431.7 531.198 450.949 551.147 469.568 570.939C497.302 600.42 527.086 633.135 557.517 659.657L567.063 668.092L487.634 642.114C476.945 638.613 462.544 634.21 452.255 629.677C450.124 628.738 439.413 619.787 437.096 617.881L411.71 596.881C385.284 574.844 358.625 553.087 331.738 531.615C327.327 528.125 311.31 513.905 307.987 512.938C296.368 509.559 277.539 506.502 265.423 504.448C262.539 496.57 254.339 481.056 250.244 473.085C234.361 442.123 216.884 412.005 197.884 382.852Z"/><path fill="#0F0F0F" d="M714.751 443.87C717.918 440.383 724.208 434.866 727.804 431.521C737.598 422.413 747.497 413.418 757.497 404.538C760.485 409.088 767.831 417.698 771.446 422.3C778.808 431.692 785.956 441.249 792.887 450.963C806.07 468.511 817.876 486.34 830.126 504.504C823.899 508.555 806.295 514.409 798.536 517.83C787.246 522.809 777.405 528.16 766.741 534.537C764.188 536.064 755.658 541.073 753.904 542.947L752.51 543.719C745.179 548.36 737.917 553.11 730.727 557.967C721.867 564.324 712.886 570.511 703.79 576.525C717.022 576.568 734.063 574.697 747.819 573.997C749.07 587.236 751.734 600.792 753.444 614.004C754.098 619.057 755.775 628.261 755.482 633.038C754.107 632.208 752.055 630.47 750.779 629.398C740.648 620.773 730.571 612.086 720.548 603.335C716.702 599.958 704.592 589.95 701.941 586.042C679.982 553.67 676.011 498.683 701.041 466.843C704.361 462.621 711.152 457.316 716.484 457.456C732.034 457.865 732.522 470.135 732.628 481.986C743.656 483.228 755.129 482.878 765.897 480.134C756.574 457.832 738.203 446.976 714.751 443.87Z"/><path fill="#720604" d="M792.887 450.963C806.07 468.511 817.876 486.34 830.126 504.504C823.899 508.555 806.295 514.409 798.536 517.83C787.246 522.809 777.405 528.16 766.741 534.537C764.188 536.064 755.658 541.073 753.904 542.947L752.51 543.719C745.179 548.36 737.917 553.11 730.727 557.967C733.315 550.051 732.989 543.852 737.266 534.243C746.261 514.033 757.862 497.922 771.469 480.646C778.083 472.249 787.737 460.014 792.887 450.963Z"/><path fill="#720604" d="M472.41 546.392C479.087 548.181 500.998 558.502 508.528 561.821C531.291 571.783 554.108 581.62 576.979 591.331C628.252 613.124 678.767 631.204 730.924 650.466L708.018 657.885C706.229 658.604 690.211 664.091 688.479 664.657C679.159 667.699 649.924 678.884 641.627 680.155C637.464 680.792 602.439 676.459 598.208 675.754C593.921 671.864 586.418 663.523 582.156 659.103L551.647 627.603L472.41 546.392Z"/><path fill="#720604" d="M264.48 505.833C277.242 513.92 290.89 521.198 303.84 529.026C310.629 533.13 317.822 537.187 324.847 540.855C314.024 545.514 298.213 554.651 288.176 560.767C267.17 573.568 246.478 587.557 225.767 600.924C213.256 608.81 200.881 616.91 188.647 625.218C193.749 614.939 204.74 598.886 211.076 588.624C220.059 574.078 229.219 559.642 238.554 545.319C246.836 532.348 255.563 518.357 264.48 505.833Z"/><path fill="#720604" d="M797.278 569.302C800.653 559.596 806.375 545.23 810.441 535.546C814.173 544.562 818.559 557.657 821.918 567.095C822.447 569.003 825.332 568.711 826.197 566.565C830.78 557.234 833.549 549.814 837.166 540L848.768 566.833C822.209 588.255 796.706 607.814 767.567 625.847C765.329 627.232 757.372 632.632 755.482 633.038C755.775 628.261 754.098 619.057 753.444 614.004C751.734 600.792 749.07 587.236 747.819 573.997C762.14 573.359 776.811 571.352 791.002 571.022L792.075 569.891C792.849 569.717 793.625 569.551 794.402 569.39L794.444 570.828L796.735 570.242L797.278 569.302Z"/><path fill="#720604" d="M797.278 569.302C800.653 559.596 806.375 545.23 810.441 535.546C814.173 544.562 818.559 557.657 821.918 567.095C820.7 568.848 800.71 569.06 797.278 569.302Z"/><path fill="#8B1A1A" d="M826.197 566.565C827.993 567.18 838.035 567.697 840.269 567.755C839.49 567.748 838.67 568.109 838.821 568.108C833.231 568.141 828.153 568.185 822.499 568.633C813.868 569.317 805.406 569.938 796.735 570.242L797.278 569.302C800.71 569.06 820.7 568.848 821.918 567.095C822.447 569.003 825.332 568.711 826.197 566.565Z"/><path fill="#D8C2C2" d="M794.402 569.39L794.444 570.828C793.298 570.915 792.15 570.98 791.002 571.022L792.075 569.891C792.849 569.717 793.625 569.551 794.402 569.39Z"/><path fill="#720604" d="M487.882 705.158C501.136 702.491 523.962 700.299 538.014 698.547C567.889 694.925 597.743 691.14 627.576 687.191L628.527 688.332L527.483 729.218L494.542 742.743C486.158 746.246 476.977 750.365 468.46 753.306C475.433 738.079 481.667 720.902 487.882 705.158Z"/><path fill="#720604" d="M468.946 276.831C504.373 291.702 540.839 305.221 576.161 320.534C584.935 324.338 594.227 327.489 602.837 331.316C604.407 331.862 604.846 332.515 602.775 332.522C600.085 332.523 597.396 332.488 594.707 332.415C575.458 333.004 556.203 333.359 536.945 333.479C525.667 333.536 512.247 333.816 501.158 333.136C491.616 313.14 480.376 295.71 468.946 276.831Z"/><path fill="#8B1A1A" d="M602.837 331.316C604.407 331.862 604.846 332.515 602.775 332.522C600.085 332.523 597.396 332.488 594.707 332.415C598.294 331.488 600.391 332.317 602.837 331.316Z"/><path fill="#720604" d="M197.916 629.381C205.611 624.157 216.079 618.403 224.219 613.657C235.044 607.267 245.928 600.976 256.869 594.786C271.423 586.704 287.857 577.99 301.988 569.394L302.985 570.507L179.838 692.742L190.368 655.332C192.672 647.094 195.153 637.343 197.916 629.381Z"/><path fill="#720604" d="M486.747 654.352L549.738 669.957C559.013 672.228 574.814 675.562 583.268 678.304C570.998 680.108 558.701 681.726 546.382 683.157C534.881 684.89 522.768 685.494 511.462 687.217C490.909 690.348 475.905 689.39 455.419 686.51C458.005 684.483 462.346 681.988 465.205 679.903C475.787 672.187 480.96 665.75 486.747 654.352Z"/><path fill="#720604" d="M222.814 337.213C227.87 341.104 304.738 441.053 308.125 447.708C306.271 446.58 304.39 445.116 302.568 443.889C286.641 433.014 270.797 421.884 255.35 410.333C245.263 402.789 233.347 395.902 223.872 387.775C224.78 370.918 224.426 354.017 222.814 337.213Z"/><path fill="#720604" d="M458.497 327.809C479.894 333.69 519.366 360.154 537.126 374.001L537.083 374.469L535.353 374.365C518.807 369.991 510.118 369.443 494.1 374.843C491.038 369.28 486.022 363.457 482.178 358.302C474.504 348.01 466.254 338.008 458.497 327.809Z"/><path fill="#720604" d="M376.874 469.375C379.465 471.152 400.323 494.117 404.033 498.143C396.219 497.777 385.441 496.283 377.381 495.442C367.498 494.191 356.692 493.525 346.666 492.497L376.874 469.375Z"/><path fill="#720604" d="M767.548 570.628C772.944 559.604 777.007 547.94 781.926 537.063C784.136 544.043 791.304 562.646 794.402 569.39C793.625 569.551 792.849 569.717 792.075 569.891L767.548 570.628Z"/><path fill="#720604" d="M752.51 543.719L753.904 542.947L754.249 543.541C758.044 552.441 762.521 562.16 766.054 570.929C757.339 571.574 748.614 572.09 739.884 572.478L753.083 545.07L752.51 543.719Z"/><path fill="#D8C2C2" d="M752.51 543.719L753.904 542.947L754.249 543.541C753.856 544.048 753.468 544.557 753.083 545.07L752.51 543.719Z"/><path fill="#8B1A1A" d="M627.576 687.191C628.966 686.779 630.57 686.612 632.008 686.439C632.672 686.352 633.335 686.255 633.997 686.148C632.175 686.888 630.424 687.796 628.527 688.332L627.576 687.191Z"/><path fill="#8B1A1A" d="M301.988 569.394C302.537 569.097 305.128 567.467 305.65 567.765C305.739 568.288 303.363 570.172 302.985 570.507L301.988 569.394Z"/></svg>